<?xml version="1.0" encoding="UTF-8"?>
<svg id="_レイヤー_2" data-name="レイヤー 2" xmlns="http://www.w3.org/2000/svg" viewBox="0 0 82.5 82.5">
  <defs>
    <style>
      .cls-1 {
        fill: none;
        stroke: #fff;
        stroke-miterlimit: 10;
        stroke-width: .5px;
      }

      .cls-2 {
        fill: #fff;
        font-family: YuGothic-Medium, 'Yu Gothic';
        font-size: 5.68px;
        font-weight: 500;
      }
    </style>
  </defs>
  <g id="img">
    <g>
      <text class="cls-2" transform="translate(65.07 23.36) rotate(54.41) scale(.94 1)"><tspan x="0" y="0">l</tspan></text>
      <text class="cls-2" transform="translate(65.87 24.43) rotate(58.46) scale(.94 1)"><tspan x="0" y="0">e</tspan></text>
      <text class="cls-2" transform="translate(67.37 26.9) rotate(62.96) scale(.94 1)"><tspan x="0" y="0">t</tspan></text>
      <text class="cls-2" transform="translate(68.19 28.53) rotate(66.02) scale(.94 1)"><tspan x="0" y="0">’</tspan></text>
      <text class="cls-2" transform="translate(68.94 30.18) rotate(70.82) scale(.94 1)"><tspan x="0" y="0">s</tspan></text>
      <text class="cls-2" transform="translate(69.79 32.67) rotate(74.77) scale(.94 1)"><tspan x="0" y="0"> </tspan></text>
      <text class="cls-2" transform="translate(70.19 34.07) rotate(78.8) scale(.94 1)"><tspan x="0" y="0">c</tspan></text>
      <text class="cls-2" transform="translate(70.73 36.72) rotate(84.2) scale(.94 1)"><tspan x="0" y="0">o</tspan></text>
      <text class="cls-2" transform="translate(71.01 39.56) rotate(89.07) scale(.94 1)"><tspan x="0" y="0">n</tspan></text>
      <text class="cls-2" transform="translate(71.02 42.61) rotate(94.35) scale(.94 1)"><tspan x="0" y="0">t</tspan></text>
      <text class="cls-2" transform="translate(70.9 44.39) rotate(98.82) scale(.94 1)"><tspan x="0" y="0">a</tspan></text>
      <text class="cls-2" transform="translate(70.47 47.22) rotate(104.16) scale(.94 1)"><tspan x="0" y="0">c</tspan></text>
      <text class="cls-2" transform="translate(69.79 49.82) rotate(108.52) scale(.94 1)"><tspan x="0" y="0">t</tspan></text>
      <text class="cls-2" transform="translate(69.21 51.55) rotate(111.7) scale(.94 1)"><tspan x="0" y="0"> </tspan></text>
      <text class="cls-2" transform="translate(68.67 52.92) rotate(114.81) scale(.94 1)"><tspan x="0" y="0">!</tspan></text>
      <text class="cls-2" transform="translate(67.95 54.5) rotate(118.17) scale(.94 1)"><tspan x="0" y="0">!</tspan></text>
      <text class="cls-2" transform="translate(67.13 56.02) rotate(121.24) scale(.94 1)"><tspan x="0" y="0"> </tspan></text>
      <text class="cls-2" transform="translate(66.37 57.27) rotate(124.04) scale(.94 1)"><tspan x="0" y="0"> </tspan></text>
      <text class="cls-2" transform="translate(65.54 58.5) rotate(126.79) scale(.94 1)"><tspan x="0" y="0">l</tspan></text>
      <text class="cls-2" transform="translate(64.75 59.6) rotate(130.86) scale(.94 1)"><tspan x="0" y="0">e</tspan></text>
      <text class="cls-2" transform="translate(62.85 61.78) rotate(135.34) scale(.94 1)"><tspan x="0" y="0">t</tspan></text>
      <text class="cls-2" transform="translate(61.56 63.04) rotate(138.33) scale(.94 1)"><tspan x="0" y="0">’</tspan></text>
      <text class="cls-2" transform="translate(60.19 64.28) rotate(143.12) scale(.94 1)"><tspan x="0" y="0">s</tspan></text>
      <text class="cls-2" transform="translate(58.07 65.84) rotate(147.03) scale(.94 1)"><tspan x="0" y="0"> </tspan></text>
      <text class="cls-2" transform="translate(56.85 66.66) rotate(151.05) scale(.94 1)"><tspan x="0" y="0">c</tspan></text>
      <text class="cls-2" transform="translate(54.54 67.95) rotate(156.38) scale(.94 1)"><tspan x="0" y="0">o</tspan></text>
      <text class="cls-2" transform="translate(51.88 69.12) rotate(162.1) scale(.94 1)"><tspan x="0" y="0">n</tspan></text>
      <text class="cls-2" transform="translate(49.02 70.02) rotate(166.73) scale(.94 1)"><tspan x="0" y="0">t</tspan></text>
      <text class="cls-2" transform="translate(47.27 70.46) rotate(171.27) scale(.94 1)"><tspan x="0" y="0">a</tspan></text>
      <text class="cls-2" transform="translate(44.45 70.89) rotate(176.55) scale(.94 1)"><tspan x="0" y="0">c</tspan></text>
      <text class="cls-2" transform="translate(41.75 71.04) rotate(-179.07) scale(.94 1)"><tspan x="0" y="0">t</tspan></text>
      <text class="cls-2" transform="translate(39.93 71.01) rotate(-176.06) scale(.94 1)"><tspan x="0" y="0"> </tspan></text>
      <text class="cls-2" transform="translate(38.46 70.92) rotate(-172.98) scale(.94 1)"><tspan x="0" y="0">!</tspan></text>
      <text class="cls-2" transform="translate(36.72 70.7) rotate(-169.6) scale(.94 1)"><tspan x="0" y="0">!</tspan></text>
      <text class="cls-2" transform="translate(35.04 70.39) rotate(-166.56) scale(.94 1)"><tspan x="0" y="0"> </tspan></text>
      <text class="cls-2" transform="translate(33.61 70.05) rotate(-163.7) scale(.94 1)"><tspan x="0" y="0"> </tspan></text>
      <text class="cls-2" transform="translate(32.19 69.64) rotate(-160.95) scale(.94 1)"><tspan x="0" y="0">l</tspan></text>
      <text class="cls-2" transform="translate(30.89 69.22) rotate(-156.81) scale(.94 1)"><tspan x="0" y="0">e</tspan></text>
      <text class="cls-2" transform="translate(28.26 68.07) rotate(-152.32) scale(.94 1)"><tspan x="0" y="0">t</tspan></text>
      <text class="cls-2" transform="translate(26.65 67.22) rotate(-149.28) scale(.94 1)"><tspan x="0" y="0">’</tspan></text>
      <text class="cls-2" transform="translate(25.07 66.3) rotate(-144.5) scale(.94 1)"><tspan x="0" y="0">s</tspan></text>
      <text class="cls-2" transform="translate(22.93 64.74) rotate(-140.55) scale(.94 1)"><tspan x="0" y="0"> </tspan></text>
      <text class="cls-2" transform="translate(21.81 63.85) rotate(-136.62) scale(.94 1)"><tspan x="0" y="0">c</tspan></text>
      <text class="cls-2" transform="translate(19.83 62) rotate(-131.24) scale(.94 1)"><tspan x="0" y="0">o</tspan></text>
      <text class="cls-2" transform="translate(17.93 59.84) rotate(-125.63) scale(.94 1)"><tspan x="0" y="0">n</tspan></text>
      <text class="cls-2" transform="translate(16.19 57.38) rotate(-121.02) scale(.94 1)"><tspan x="0" y="0">t</tspan></text>
      <text class="cls-2" transform="translate(15.24 55.85) rotate(-116.51) scale(.94 1)"><tspan x="0" y="0">a</tspan></text>
      <text class="cls-2" transform="translate(13.97 53.29) rotate(-111.17) scale(.94 1)"><tspan x="0" y="0">c</tspan></text>
      <text class="cls-2" transform="translate(13.01 50.78) rotate(-106.83) scale(.94 1)"><tspan x="0" y="0">t</tspan></text>
      <text class="cls-2" transform="translate(12.48 49.03) rotate(-103.62) scale(.94 1)"><tspan x="0" y="0"> </tspan></text>
      <text class="cls-2" transform="translate(12.13 47.58) rotate(-100.49) scale(.94 1)"><tspan x="0" y="0">!</tspan></text>
      <text class="cls-2" transform="translate(11.81 45.88) rotate(-97.15) scale(.94 1)"><tspan x="0" y="0">!</tspan></text>
      <text class="cls-2" transform="translate(11.6 44.16) rotate(-94.08) scale(.94 1)"><tspan x="0" y="0"> </tspan></text>
      <text class="cls-2" transform="translate(11.49 42.71) rotate(-91.31) scale(.94 1)"><tspan x="0" y="0"> </tspan></text>
      <text class="cls-2" transform="translate(11.46 41.23) rotate(-88.64) scale(.94 1)"><tspan x="0" y="0">l</tspan></text>
      <text class="cls-2" transform="translate(11.46 39.87) rotate(-84.56) scale(.94 1)"><tspan x="0" y="0">e</tspan></text>
      <text class="cls-2" transform="translate(11.75 37.01) rotate(-80.1) scale(.94 1)"><tspan x="0" y="0">t</tspan></text>
      <text class="cls-2" transform="translate(12.07 35.22) rotate(-77.05) scale(.94 1)"><tspan x="0" y="0">’</tspan></text>
      <text class="cls-2" transform="translate(12.47 33.42) rotate(-72.19) scale(.94 1)"><tspan x="0" y="0">s</tspan></text>
      <text class="cls-2" transform="translate(13.3 30.91) rotate(-68.22) scale(.94 1)"><tspan x="0" y="0"> </tspan></text>
      <text class="cls-2" transform="translate(13.81 29.56) rotate(-64.23) scale(.94 1)"><tspan x="0" y="0">c</tspan></text>
      <text class="cls-2" transform="translate(14.96 27.16) rotate(-58.89) scale(.94 1)"><tspan x="0" y="0">o</tspan></text>
      <text class="cls-2" transform="translate(16.46 24.67) rotate(-53.21) scale(.94 1)"><tspan x="0" y="0">n</tspan></text>
      <text class="cls-2" transform="translate(18.27 22.27) rotate(-48.63) scale(.94 1)"><tspan x="0" y="0">t</tspan></text>
      <text class="cls-2" transform="translate(19.45 20.91) rotate(-44.15) scale(.94 1)"><tspan x="0" y="0">a</tspan></text>
      <text class="cls-2" transform="translate(21.5 18.91) rotate(-38.85) scale(.94 1)"><tspan x="0" y="0">c</tspan></text>
      <text class="cls-2" transform="translate(23.6 17.23) rotate(-34.56) scale(.94 1)"><tspan x="0" y="0">t</tspan></text>
      <text class="cls-2" transform="translate(25.12 16.2) rotate(-31.37) scale(.94 1)"><tspan x="0" y="0"> </tspan></text>
      <text class="cls-2" transform="translate(26.36 15.43) rotate(-28.29) scale(.94 1)"><tspan x="0" y="0">!</tspan></text>
      <text class="cls-2" transform="translate(27.89 14.61) rotate(-24.94) scale(.94 1)"><tspan x="0" y="0">!</tspan></text>
      <text class="cls-2" transform="translate(29.45 13.88) rotate(-21.88) scale(.94 1)"><tspan x="0" y="0"> </tspan></text>
      <text class="cls-2" transform="translate(30.83 13.33) rotate(-19.01) scale(.94 1)"><tspan x="0" y="0"> </tspan></text>
      <text class="cls-2" transform="translate(32.22 12.85) rotate(-16.26) scale(.94 1)"><tspan x="0" y="0">l</tspan></text>
      <text class="cls-2" transform="translate(33.5 12.44) rotate(-12.15) scale(.94 1)"><tspan x="0" y="0">e</tspan></text>
      <text class="cls-2" transform="translate(36.34 11.85) rotate(-7.61) scale(.94 1)"><tspan x="0" y="0">t</tspan></text>
      <text class="cls-2" transform="translate(38.13 11.62) rotate(-4.62) scale(.94 1)"><tspan x="0" y="0">’</tspan></text>
      <text class="cls-2" transform="translate(39.94 11.44) rotate(.93) scale(.94 1)"><tspan x="0" y="0">s</tspan></text>
      <text class="cls-2" transform="translate(42.59 11.48) rotate(3.99) scale(.94 1)"><tspan x="0" y="0"> </tspan></text>
      <text class="cls-2" transform="translate(44.04 11.56) rotate(7.96) scale(.94 1)"><tspan x="0" y="0">c</tspan></text>
      <text class="cls-2" transform="translate(46.7 11.93) rotate(13.36) scale(.94 1)"><tspan x="0" y="0">o</tspan></text>
      <text class="cls-2" transform="translate(49.51 12.58) rotate(19.05) scale(.94 1)"><tspan x="0" y="0">n</tspan></text>
      <text class="cls-2" transform="translate(52.36 13.59) rotate(23.71) scale(.94 1)"><tspan x="0" y="0">t</tspan></text>
      <text class="cls-2" transform="translate(54.02 14.3) rotate(28.25) scale(.94 1)"><tspan x="0" y="0">a</tspan></text>
      <text class="cls-2" transform="translate(56.54 15.65) rotate(33.57) scale(.94 1)"><tspan x="0" y="0">c</tspan></text>
      <text class="cls-2" transform="translate(58.77 17.15) rotate(37.86) scale(.94 1)"><tspan x="0" y="0">t</tspan></text>
      <text class="cls-2" transform="translate(60.2 18.26) rotate(40.99) scale(.94 1)"><tspan x="0" y="0"> </tspan></text>
      <text class="cls-2" transform="translate(61.31 19.22) rotate(44.06) scale(.94 1)"><tspan x="0" y="0">!</tspan></text>
      <text class="cls-2" transform="translate(62.57 20.43) rotate(47.39) scale(.94 1)"><tspan x="0" y="0">!</tspan></text>
      <text class="cls-2" transform="translate(63.75 21.72) rotate(50.47) scale(.94 1)"><tspan x="0" y="0"> </tspan></text>
      <text class="cls-2" transform="translate(64.69 22.85) rotate(53.3) scale(.94 1)"><tspan x="0" y="0"> </tspan></text>
      <circle class="cls-1" cx="41.25" cy="41.25" r="41"/>
    </g>
  </g>
</svg>