<?xml version="1.0" encoding="UTF-8"?>
<svg id="_レイヤー_2" data-name="レイヤー 2" xmlns="http://www.w3.org/2000/svg" viewBox="0 0 25.99 20.28">
  <defs>
    <style>
      .cls-1 {
        fill: #fff;
        stroke-width: 0px;
      }
    </style>
  </defs>
  <g id="img">
    <path class="cls-1" d="M25.92,2.75c-.11-.55-.35-1.06-.71-1.5-.07-.09-.15-.17-.23-.25-.63-.64-1.51-1-2.41-1H3.41c-.91,0-1.77.36-2.41,1-.08.08-.16.16-.23.26-.35.43-.6.95-.7,1.49-.04.21-.07.44-.07.66v13.46c0,.47.1.92.28,1.36.16.38.41.75.72,1.06.08.08.15.15.23.22.61.51,1.38.78,2.18.78h19.16c.8,0,1.57-.28,2.18-.79.08-.07.16-.14.23-.21.3-.29.53-.63.7-1.01l.02-.05c.19-.43.28-.88.28-1.35V3.41c0-.22-.02-.45-.06-.66ZM1.77,2.18c.05-.07.11-.14.19-.22.39-.39.91-.6,1.46-.6h19.16c.55,0,1.07.21,1.46.61.07.07.13.14.19.22l.15.2-10.23,8.91c-.32.28-.72.43-1.14.43s-.82-.15-1.14-.43L1.63,2.37l.13-.19ZM1.36,16.99s0-.08,0-.12V3.69l7.94,6.92-7.86,6.85-.07-.48ZM23.6,18.66c-.31.18-.66.27-1.02.27H3.41c-.36,0-.72-.09-1.02-.27l-.32-.19,8.12-7.07.89.77c.53.46,1.21.72,1.92.72s1.39-.26,1.92-.72l.89-.77,8.11,7.07-.32.19ZM24.63,16.87s0,.08,0,.12l-.07.48-7.86-6.85,7.94-6.92v13.17Z"/>
  </g>
</svg>