<?xml version="1.0" encoding="UTF-8"?>
<svg id="_レイヤー_2" data-name="レイヤー 2" xmlns="http://www.w3.org/2000/svg" viewBox="0 0 106.5 106.5">
  <defs>
    <style>
      .cls-1 {
        fill: #fff;
        font-family: YuGothic-Medium, 'Yu Gothic';
        font-size: 7.34px;
        font-weight: 500;
      }

      .cls-2 {
        fill: none;
        stroke: #fff;
        stroke-miterlimit: 10;
        stroke-width: .5px;
      }
    </style>
  </defs>
  <g id="img">
    <g>
      <text class="cls-1" transform="translate(84.05 30.12) rotate(54.41) scale(.94 1)"><tspan x="0" y="0">l</tspan></text>
      <text class="cls-1" transform="translate(85.08 31.5) rotate(58.46) scale(.94 1)"><tspan x="0" y="0">e</tspan></text>
      <text class="cls-1" transform="translate(87.01 34.69) rotate(62.96) scale(.94 1)"><tspan x="0" y="0">t</tspan></text>
      <text class="cls-1" transform="translate(88.08 36.8) rotate(66.02) scale(.94 1)"><tspan x="0" y="0">’</tspan></text>
      <text class="cls-1" transform="translate(89.06 38.97) rotate(70.86) scale(.94 1)"><tspan x="0" y="0">s</tspan></text>
      <text class="cls-1" transform="translate(90.16 42.22) rotate(74.86) scale(.94 1)"><tspan x="0" y="0"> </tspan></text>
      <text class="cls-1" transform="translate(90.68 44.03) rotate(78.88) scale(.94 1)"><tspan x="0" y="0">c</tspan></text>
      <text class="cls-1" transform="translate(91.36 47.42) rotate(84.25) scale(.94 1)"><tspan x="0" y="0">o</tspan></text>
      <text class="cls-1" transform="translate(91.72 51.12) rotate(89.07) scale(.94 1)"><tspan x="0" y="0">n</tspan></text>
      <text class="cls-1" transform="translate(91.73 55.07) rotate(94.44) scale(.94 1)"><tspan x="0" y="0">t</tspan></text>
      <text class="cls-1" transform="translate(91.58 57.37) rotate(98.91) scale(.94 1)"><tspan x="0" y="0">a</tspan></text>
      <text class="cls-1" transform="translate(91 61.05) rotate(104.29) scale(.94 1)"><tspan x="0" y="0">c</tspan></text>
      <text class="cls-1" transform="translate(90.12 64.42) rotate(108.65) scale(.94 1)"><tspan x="0" y="0">t</tspan></text>
      <text class="cls-1" transform="translate(89.37 66.64) rotate(111.83) scale(.94 1)"><tspan x="0" y="0"> </tspan></text>
      <text class="cls-1" transform="translate(88.67 68.41) rotate(114.94) scale(.94 1)"><tspan x="0" y="0">!</tspan></text>
      <text class="cls-1" transform="translate(87.72 70.45) rotate(118.3) scale(.94 1)"><tspan x="0" y="0">!</tspan></text>
      <text class="cls-1" transform="translate(86.64 72.45) rotate(121.41) scale(.94 1)"><tspan x="0" y="0"> </tspan></text>
      <text class="cls-1" transform="translate(85.66 74.06) rotate(124.22) scale(.94 1)"><tspan x="0" y="0"> </tspan></text>
      <text class="cls-1" transform="translate(84.58 75.65) rotate(126.96) scale(.94 1)"><tspan x="0" y="0">l</tspan></text>
      <text class="cls-1" transform="translate(83.56 77.07) rotate(131.03) scale(.94 1)"><tspan x="0" y="0">e</tspan></text>
      <text class="cls-1" transform="translate(81.09 79.87) rotate(135.51) scale(.94 1)"><tspan x="0" y="0">t</tspan></text>
      <text class="cls-1" transform="translate(79.4 81.52) rotate(138.54) scale(.94 1)"><tspan x="0" y="0">’</tspan></text>
      <text class="cls-1" transform="translate(77.64 83.09) rotate(143.29) scale(.94 1)"><tspan x="0" y="0">s</tspan></text>
      <text class="cls-1" transform="translate(74.88 85.12) rotate(147.25) scale(.94 1)"><tspan x="0" y="0"> </tspan></text>
      <text class="cls-1" transform="translate(73.3 86.17) rotate(151.27) scale(.94 1)"><tspan x="0" y="0">c</tspan></text>
      <text class="cls-1" transform="translate(70.28 87.84) rotate(156.63) scale(.94 1)"><tspan x="0" y="0">o</tspan></text>
      <text class="cls-1" transform="translate(66.83 89.34) rotate(162.37) scale(.94 1)"><tspan x="0" y="0">n</tspan></text>
      <text class="cls-1" transform="translate(63.12 90.49) rotate(167) scale(.94 1)"><tspan x="0" y="0">t</tspan></text>
      <text class="cls-1" transform="translate(60.85 91.05) rotate(171.54) scale(.94 1)"><tspan x="0" y="0">a</tspan></text>
      <text class="cls-1" transform="translate(57.17 91.59) rotate(176.87) scale(.94 1)"><tspan x="0" y="0">c</tspan></text>
      <text class="cls-1" transform="translate(53.68 91.76) rotate(-178.87) scale(.94 1)"><tspan x="0" y="0">t</tspan></text>
      <text class="cls-1" transform="translate(51.33 91.71) rotate(-175.74) scale(.94 1)"><tspan x="0" y="0"> </tspan></text>
      <text class="cls-1" transform="translate(49.43 91.58) rotate(-172.66) scale(.94 1)"><tspan x="0" y="0">!</tspan></text>
      <text class="cls-1" transform="translate(47.22 91.3) rotate(-169.33) scale(.94 1)"><tspan x="0" y="0">!</tspan></text>
      <text class="cls-1" transform="translate(44.99 90.87) rotate(-166.2) scale(.94 1)"><tspan x="0" y="0"> </tspan></text>
      <text class="cls-1" transform="translate(43.14 90.42) rotate(-163.35) scale(.94 1)"><tspan x="0" y="0"> </tspan></text>
      <text class="cls-1" transform="translate(41.32 89.88) rotate(-160.6) scale(.94 1)"><tspan x="0" y="0">l</tspan></text>
      <text class="cls-1" transform="translate(39.64 89.33) rotate(-156.46) scale(.94 1)"><tspan x="0" y="0">e</tspan></text>
      <text class="cls-1" transform="translate(36.22 87.81) rotate(-151.92) scale(.94 1)"><tspan x="0" y="0">t</tspan></text>
      <text class="cls-1" transform="translate(34.15 86.7) rotate(-148.89) scale(.94 1)"><tspan x="0" y="0">’</tspan></text>
      <text class="cls-1" transform="translate(32.12 85.49) rotate(-144.11) scale(.94 1)"><tspan x="0" y="0">s</tspan></text>
      <text class="cls-1" transform="translate(29.36 83.46) rotate(-140.17) scale(.94 1)"><tspan x="0" y="0"> </tspan></text>
      <text class="cls-1" transform="translate(27.89 82.28) rotate(-136.2) scale(.94 1)"><tspan x="0" y="0">c</tspan></text>
      <text class="cls-1" transform="translate(25.38 79.88) rotate(-130.86) scale(.94 1)"><tspan x="0" y="0">o</tspan></text>
      <text class="cls-1" transform="translate(22.92 77.05) rotate(-125.2) scale(.94 1)"><tspan x="0" y="0">n</tspan></text>
      <text class="cls-1" transform="translate(20.7 73.86) rotate(-120.59) scale(.94 1)"><tspan x="0" y="0">t</tspan></text>
      <text class="cls-1" transform="translate(19.49 71.87) rotate(-116.08) scale(.94 1)"><tspan x="0" y="0">a</tspan></text>
      <text class="cls-1" transform="translate(17.85 68.52) rotate(-110.68) scale(.94 1)"><tspan x="0" y="0">c</tspan></text>
      <text class="cls-1" transform="translate(16.64 65.26) rotate(-106.34) scale(.94 1)"><tspan x="0" y="0">t</tspan></text>
      <text class="cls-1" transform="translate(15.98 62.99) rotate(-103.13) scale(.94 1)"><tspan x="0" y="0"> </tspan></text>
      <text class="cls-1" transform="translate(15.54 61.15) rotate(-100.04) scale(.94 1)"><tspan x="0" y="0">!</tspan></text>
      <text class="cls-1" transform="translate(15.15 58.94) rotate(-96.7) scale(.94 1)"><tspan x="0" y="0">!</tspan></text>
      <text class="cls-1" transform="translate(14.89 56.7) rotate(-93.63) scale(.94 1)"><tspan x="0" y="0"> </tspan></text>
      <text class="cls-1" transform="translate(14.77 54.79) rotate(-90.93) scale(.94 1)"><tspan x="0" y="0"> </tspan></text>
      <text class="cls-1" transform="translate(14.74 52.86) rotate(-88.09) scale(.94 1)"><tspan x="0" y="0">l</tspan></text>
      <text class="cls-1" transform="translate(14.76 51.13) rotate(-84.06) scale(.94 1)"><tspan x="0" y="0">e</tspan></text>
      <text class="cls-1" transform="translate(15.17 47.42) rotate(-79.56) scale(.94 1)"><tspan x="0" y="0">t</tspan></text>
      <text class="cls-1" transform="translate(15.6 45.1) rotate(-76.51) scale(.94 1)"><tspan x="0" y="0">’</tspan></text>
      <text class="cls-1" transform="translate(16.15 42.78) rotate(-71.66) scale(.94 1)"><tspan x="0" y="0">s</tspan></text>
      <text class="cls-1" transform="translate(17.24 39.55) rotate(-67.69) scale(.94 1)"><tspan x="0" y="0"> </tspan></text>
      <text class="cls-1" transform="translate(17.93 37.79) rotate(-63.66) scale(.94 1)"><tspan x="0" y="0">c</tspan></text>
      <text class="cls-1" transform="translate(19.46 34.68) rotate(-58.28) scale(.94 1)"><tspan x="0" y="0">o</tspan></text>
      <text class="cls-1" transform="translate(21.43 31.48) rotate(-52.61) scale(.94 1)"><tspan x="0" y="0">n</tspan></text>
      <text class="cls-1" transform="translate(23.81 28.41) rotate(-48.03) scale(.94 1)"><tspan x="0" y="0">t</tspan></text>
      <text class="cls-1" transform="translate(25.34 26.66) rotate(-43.55) scale(.94 1)"><tspan x="0" y="0">a</tspan></text>
      <text class="cls-1" transform="translate(28.03 24.1) rotate(-38.25) scale(.94 1)"><tspan x="0" y="0">c</tspan></text>
      <text class="cls-1" transform="translate(30.79 21.95) rotate(-33.91) scale(.94 1)"><tspan x="0" y="0">t</tspan></text>
      <text class="cls-1" transform="translate(32.74 20.65) rotate(-30.77) scale(.94 1)"><tspan x="0" y="0"> </tspan></text>
      <text class="cls-1" transform="translate(34.39 19.66) rotate(-27.64) scale(.94 1)"><tspan x="0" y="0">!</tspan></text>
      <text class="cls-1" transform="translate(36.38 18.62) rotate(-24.28) scale(.94 1)"><tspan x="0" y="0">!</tspan></text>
      <text class="cls-1" transform="translate(38.43 17.69) rotate(-21.17) scale(.94 1)"><tspan x="0" y="0"> </tspan></text>
      <text class="cls-1" transform="translate(40.19 17.01) rotate(-18.34) scale(.94 1)"><tspan x="0" y="0"> </tspan></text>
      <text class="cls-1" transform="translate(42 16.41) rotate(-15.59) scale(.94 1)"><tspan x="0" y="0">l</tspan></text>
      <text class="cls-1" transform="translate(43.67 15.9) rotate(-11.48) scale(.94 1)"><tspan x="0" y="0">e</tspan></text>
      <text class="cls-1" transform="translate(47.35 15.18) rotate(-6.93) scale(.94 1)"><tspan x="0" y="0">t</tspan></text>
      <text class="cls-1" transform="translate(49.7 14.9) rotate(-3.9) scale(.94 1)"><tspan x="0" y="0">’</tspan></text>
      <text class="cls-1" transform="translate(52.06 14.72) rotate(.93) scale(.94 1)"><tspan x="0" y="0">s</tspan></text>
      <text class="cls-1" transform="translate(55.48 14.8) rotate(4.71) scale(.94 1)"><tspan x="0" y="0"> </tspan></text>
      <text class="cls-1" transform="translate(57.37 14.92) rotate(8.73) scale(.94 1)"><tspan x="0" y="0">c</tspan></text>
      <text class="cls-1" transform="translate(60.8 15.44) rotate(14.12) scale(.94 1)"><tspan x="0" y="0">o</tspan></text>
      <text class="cls-1" transform="translate(64.44 16.35) rotate(19.85) scale(.94 1)"><tspan x="0" y="0">n</tspan></text>
      <text class="cls-1" transform="translate(68.1 17.7) rotate(24.5) scale(.94 1)"><tspan x="0" y="0">t</tspan></text>
      <text class="cls-1" transform="translate(70.24 18.64) rotate(29.03) scale(.94 1)"><tspan x="0" y="0">a</tspan></text>
      <text class="cls-1" transform="translate(73.46 20.43) rotate(34.34) scale(.94 1)"><tspan x="0" y="0">c</tspan></text>
      <text class="cls-1" transform="translate(76.35 22.42) rotate(38.68) scale(.94 1)"><tspan x="0" y="0">t</tspan></text>
      <text class="cls-1" transform="translate(78.19 23.9) rotate(41.84) scale(.94 1)"><tspan x="0" y="0"> </tspan></text>
      <text class="cls-1" transform="translate(79.61 25.17) rotate(44.92) scale(.94 1)"><tspan x="0" y="0">!</tspan></text>
      <text class="cls-1" transform="translate(81.19 26.73) rotate(48.2) scale(.94 1)"><tspan x="0" y="0">!</tspan></text>
      <text class="cls-1" transform="translate(82.69 28.42) rotate(51.28) scale(.94 1)"><tspan x="0" y="0"> </tspan></text>
      <text class="cls-1" transform="translate(83.88 29.91) rotate(54.11) scale(.94 1)"><tspan x="0" y="0"> </tspan></text>
      <circle class="cls-2" cx="53.25" cy="53.25" r="53"/>
    </g>
  </g>
</svg>