<?xml version="1.0" encoding="UTF-8"?>
<svg id="_レイヤー_2" data-name="レイヤー 2" xmlns="http://www.w3.org/2000/svg" viewBox="0 0 268.22 268.22">
  <defs>
    <style>
      .cls-1 {
        fill: none;
        stroke: #26130e;
        stroke-miterlimit: 10;
        stroke-width: .23px;
      }
    </style>
  </defs>
  <g id="img">
    <g>
      <path class="cls-1" d="M194.72,19.99h-121.23c-3.26,0-6.28,1.74-7.91,4.57L4.97,129.54c-1.63,2.83-1.63,6.31,0,9.13l60.62,104.99c1.63,2.83,4.65,4.57,7.91,4.57h121.23c3.26,0,6.28-1.74,7.91-4.57l60.62-104.99c1.63-2.83,1.63-6.31,0-9.13l-60.62-104.99c-1.63-2.83-4.65-4.57-7.91-4.57Z"/>
      <path class="cls-1" d="M19.99,73.49v121.23c0,3.26,1.74,6.28,4.57,7.91l104.99,60.62c2.83,1.63,6.31,1.63,9.13,0l104.99-60.62c2.83-1.63,4.57-4.65,4.57-7.91v-121.23c0-3.26-1.74-6.28-4.57-7.91L138.67,4.97c-2.83-1.63-6.31-1.63-9.13,0L24.55,65.58c-2.83,1.63-4.57,4.65-4.57,7.91Z"/>
      <circle class="cls-1" cx="134.11" cy="134.11" r="133.99"/>
    </g>
  </g>
</svg>