<?xml version="1.0" encoding="UTF-8"?>
<svg id="_レイヤー_2" data-name="レイヤー 2" xmlns="http://www.w3.org/2000/svg" viewBox="0 0 587.42 587.42">
  <defs>
    <style>
      .cls-1 {
        fill: none;
        stroke: #26130e;
        stroke-miterlimit: 10;
        stroke-width: .5px;
      }
    </style>
  </defs>
  <g id="img">
    <g>
      <path class="cls-1" d="M426.47,43.77H160.96c-7.15,0-13.75,3.81-17.32,10L10.88,283.71c-3.57,6.19-3.57,13.81,0,20l132.76,229.94c3.57,6.19,10.18,10,17.32,10h265.51c7.15,0,13.75-3.81,17.32-10l132.76-229.94c3.57-6.19,3.57-13.81,0-20L443.79,53.77c-3.57-6.19-10.18-10-17.32-10Z"/>
      <path class="cls-1" d="M43.77,160.96v265.51c0,7.15,3.81,13.75,10,17.32l229.94,132.76c6.19,3.57,13.81,3.57,20,0l229.94-132.76c6.19-3.57,10-10.18,10-17.32V160.96c0-7.15-3.81-13.75-10-17.32L303.71,10.88c-6.19-3.57-13.81-3.57-20,0L53.77,143.64c-6.19,3.57-10,10.18-10,17.32Z"/>
      <circle class="cls-1" cx="293.71" cy="293.71" r="293.46"/>
    </g>
  </g>
</svg>