<?xml version="1.0" encoding="UTF-8"?>
<svg id="_レイヤー_2" data-name="レイヤー 2" xmlns="http://www.w3.org/2000/svg" viewBox="0 0 20.1 15.69">
  <defs>
    <style>
      .cls-1 {
        fill: #fff;
        stroke-width: 0px;
      }
    </style>
  </defs>
  <g id="img">
    <path class="cls-1" d="M20.05,2.13c-.08-.42-.27-.82-.55-1.16-.06-.07-.11-.13-.18-.2-.49-.49-1.17-.77-1.87-.77H2.64c-.7,0-1.37.27-1.87.77-.06.06-.12.13-.18.2C.32,1.31.13,1.71.05,2.13c-.03.17-.05.34-.05.51v10.41c0,.36.07.71.22,1.05.13.3.32.58.55.82.06.06.12.11.18.17.47.39,1.07.61,1.68.61h14.82c.62,0,1.22-.22,1.69-.61.06-.05.12-.1.18-.16.23-.23.41-.49.54-.78l.02-.04c.14-.33.22-.68.22-1.05V2.64c0-.17-.02-.34-.05-.51ZM1.37,1.69c.04-.05.09-.11.15-.17.3-.3.7-.47,1.13-.47h14.82c.43,0,.83.17,1.13.47.05.05.1.11.14.17l.11.15-7.91,6.9c-.24.21-.56.33-.88.33s-.64-.12-.88-.33L1.26,1.84l.1-.15ZM1.05,13.14s0-.06,0-.09V2.86l6.14,5.36L1.11,13.51l-.06-.37ZM18.25,14.44c-.24.14-.51.21-.79.21H2.64c-.28,0-.55-.07-.79-.21l-.25-.14,6.28-5.47.69.6c.41.36.94.56,1.48.56s1.07-.2,1.49-.56l.69-.6,6.28,5.47-.25.14ZM19.06,13.05s0,.06,0,.09l-.05.37-6.08-5.3,6.14-5.36v10.19Z"/>
  </g>
</svg>