<?xml version="1.0" encoding="UTF-8"?>
<svg id="_レイヤー_2" data-name="レイヤー 2" xmlns="http://www.w3.org/2000/svg" viewBox="0 0 82.38 82.38">
  <defs>
    <style>
      .cls-1 {
        fill: none;
        stroke: #fff;
        stroke-miterlimit: 10;
        stroke-width: .38px;
      }

      .cls-2 {
        fill: #fff;
        font-family: YuGothic-Medium, 'Yu Gothic';
        font-size: 5.74px;
        font-weight: 500;
      }
    </style>
  </defs>
  <g id="img">
    <g>
      <text class="cls-2" transform="translate(65.03 23.23) rotate(56.73) scale(.94 1)"><tspan x="0" y="0">G</tspan></text>
      <text class="cls-2" transform="translate(67.1 26.42) rotate(63.14) scale(.94 1)"><tspan x="0" y="0">e</tspan></text>
      <text class="cls-2" transform="translate(68.41 29.03) rotate(67.73) scale(.94 1)"><tspan x="0" y="0">t</tspan></text>
      <text class="cls-2" transform="translate(69.1 30.74) rotate(70.95) scale(.94 1)"><tspan x="0" y="0"> </tspan></text>
      <text class="cls-2" transform="translate(69.59 32.15) rotate(73.74) scale(.94 1)"><tspan x="0" y="0">i</tspan></text>
      <text class="cls-2" transform="translate(70 33.45) rotate(78.03) scale(.94 1)"><tspan x="0" y="0">n</tspan></text>
      <text class="cls-2" transform="translate(70.61 36.45) rotate(82.39) scale(.94 1)"><tspan x="0" y="0"> </tspan></text>
      <text class="cls-2" transform="translate(70.81 37.91) rotate(85.55) scale(.94 1)"><tspan x="0" y="0">t</tspan></text>
      <text class="cls-2" transform="translate(71 39.71) rotate(90.93) scale(.94 1)"><tspan x="0" y="0">o</tspan></text>
      <text class="cls-2" transform="translate(70.98 42.65) rotate(95.75) scale(.94 1)"><tspan x="0" y="0">u</tspan></text>
      <text class="cls-2" transform="translate(70.67 45.68) rotate(101.3) scale(.94 1)"><tspan x="0" y="0">c</tspan></text>
      <text class="cls-2" transform="translate(70.16 48.33) rotate(106.84) scale(.94 1)"><tspan x="0" y="0">h</tspan></text>
      <text class="cls-2" transform="translate(69.24 51.24) rotate(111.22) scale(.94 1)"><tspan x="0" y="0"> </tspan></text>
      <text class="cls-2" transform="translate(68.72 52.62) rotate(114.33) scale(.94 1)"><tspan x="0" y="0">!</tspan></text>
      <text class="cls-2" transform="translate(67.99 54.23) rotate(117.73) scale(.94 1)"><tspan x="0" y="0">!</tspan></text>
      <text class="cls-2" transform="translate(67.17 55.78) rotate(120.86) scale(.94 1)"><tspan x="0" y="0"> </tspan></text>
      <text class="cls-2" transform="translate(66.41 57.05) rotate(123.7) scale(.94 1)"><tspan x="0" y="0"> </tspan></text>
      <text class="cls-2" transform="translate(65.66 58.29) rotate(128.77) scale(.94 1)"><tspan x="0" y="0">G</tspan></text>
      <text class="cls-2" transform="translate(63.25 61.26) rotate(135.17) scale(.94 1)"><tspan x="0" y="0">e</tspan></text>
      <text class="cls-2" transform="translate(61.17 63.3) rotate(139.7) scale(.94 1)"><tspan x="0" y="0">t</tspan></text>
      <text class="cls-2" transform="translate(59.75 64.5) rotate(142.91) scale(.94 1)"><tspan x="0" y="0"> </tspan></text>
      <text class="cls-2" transform="translate(58.57 65.39) rotate(145.66) scale(.94 1)"><tspan x="0" y="0">i</tspan></text>
      <text class="cls-2" transform="translate(57.45 66.2) rotate(149.93) scale(.94 1)"><tspan x="0" y="0">n</tspan></text>
      <text class="cls-2" transform="translate(54.8 67.7) rotate(154.27) scale(.94 1)"><tspan x="0" y="0"> </tspan></text>
      <text class="cls-2" transform="translate(53.45 68.36) rotate(157.51) scale(.94 1)"><tspan x="0" y="0">t</tspan></text>
      <text class="cls-2" transform="translate(51.79 69.07) rotate(162.1) scale(.94 1)"><tspan x="0" y="0">o</tspan></text>
      <text class="cls-2" transform="translate(49.02 69.97) rotate(167.86) scale(.94 1)"><tspan x="0" y="0">u</tspan></text>
      <text class="cls-2" transform="translate(46.05 70.61) rotate(173.39) scale(.94 1)"><tspan x="0" y="0">c</tspan></text>
      <text class="cls-2" transform="translate(43.36 70.94) rotate(178.87) scale(.94 1)"><tspan x="0" y="0">h</tspan></text>
      <text class="cls-2" transform="translate(40.31 70.97) rotate(-176.87) scale(.94 1)"><tspan x="0" y="0"> </tspan></text>
      <text class="cls-2" transform="translate(38.81 70.89) rotate(-173.75) scale(.94 1)"><tspan x="0" y="0">!</tspan></text>
      <text class="cls-2" transform="translate(37.09 70.71) rotate(-170.41) scale(.94 1)"><tspan x="0" y="0">!</tspan></text>
      <text class="cls-2" transform="translate(35.35 70.41) rotate(-167.27) scale(.94 1)"><tspan x="0" y="0"> </tspan></text>
      <text class="cls-2" transform="translate(33.89 70.08) rotate(-164.37) scale(.94 1)"><tspan x="0" y="0"> </tspan></text>
      <text class="cls-2" transform="translate(32.49 69.75) rotate(-159.28) scale(.94 1)"><tspan x="0" y="0">G</tspan></text>
      <text class="cls-2" transform="translate(28.92 68.38) rotate(-152.79) scale(.94 1)"><tspan x="0" y="0">e</tspan></text>
      <text class="cls-2" transform="translate(26.32 67.02) rotate(-148.2) scale(.94 1)"><tspan x="0" y="0">t</tspan></text>
      <text class="cls-2" transform="translate(24.76 66.05) rotate(-145.01) scale(.94 1)"><tspan x="0" y="0"> </tspan></text>
      <text class="cls-2" transform="translate(23.55 65.2) rotate(-142.27) scale(.94 1)"><tspan x="0" y="0">i</tspan></text>
      <text class="cls-2" transform="translate(22.45 64.39) rotate(-138.03) scale(.94 1)"><tspan x="0" y="0">n</tspan></text>
      <text class="cls-2" transform="translate(20.2 62.33) rotate(-133.72) scale(.94 1)"><tspan x="0" y="0"> </tspan></text>
      <text class="cls-2" transform="translate(19.17 61.26) rotate(-130.56) scale(.94 1)"><tspan x="0" y="0">t</tspan></text>
      <text class="cls-2" transform="translate(17.96 59.89) rotate(-125.98) scale(.94 1)"><tspan x="0" y="0">o</tspan></text>
      <text class="cls-2" transform="translate(16.23 57.52) rotate(-120.25) scale(.94 1)"><tspan x="0" y="0">u</tspan></text>
      <text class="cls-2" transform="translate(14.71 54.9) rotate(-114.72) scale(.94 1)"><tspan x="0" y="0">c</tspan></text>
      <text class="cls-2" transform="translate(13.57 52.46) rotate(-109.18) scale(.94 1)"><tspan x="0" y="0">h</tspan></text>
      <text class="cls-2" transform="translate(12.59 49.56) rotate(-104.79) scale(.94 1)"><tspan x="0" y="0"> </tspan></text>
      <text class="cls-2" transform="translate(12.21 48.13) rotate(-101.65) scale(.94 1)"><tspan x="0" y="0">!</tspan></text>
      <text class="cls-2" transform="translate(11.85 46.41) rotate(-98.28) scale(.94 1)"><tspan x="0" y="0">!</tspan></text>
      <text class="cls-2" transform="translate(11.6 44.67) rotate(-95.17) scale(.94 1)"><tspan x="0" y="0"> </tspan></text>
      <text class="cls-2" transform="translate(11.46 43.18) rotate(-92.31) scale(.94 1)"><tspan x="0" y="0"> </tspan></text>
      <text class="cls-2" transform="translate(11.35 41.71) rotate(-87.28) scale(.94 1)"><tspan x="0" y="0">G</tspan></text>
      <text class="cls-2" transform="translate(11.55 37.9) rotate(-80.86) scale(.94 1)"><tspan x="0" y="0">e</tspan></text>
      <text class="cls-2" transform="translate(12.03 35.05) rotate(-76.33) scale(.94 1)"><tspan x="0" y="0">t</tspan></text>
      <text class="cls-2" transform="translate(12.47 33.24) rotate(-73.08) scale(.94 1)"><tspan x="0" y="0"> </tspan></text>
      <text class="cls-2" transform="translate(12.9 31.84) rotate(-70.33) scale(.94 1)"><tspan x="0" y="0">i</tspan></text>
      <text class="cls-2" transform="translate(13.33 30.53) rotate(-66.02) scale(.94 1)"><tspan x="0" y="0">n</tspan></text>
      <text class="cls-2" transform="translate(14.6 27.75) rotate(-61.66) scale(.94 1)"><tspan x="0" y="0"> </tspan></text>
      <text class="cls-2" transform="translate(15.29 26.44) rotate(-58.46) scale(.94 1)"><tspan x="0" y="0">t</tspan></text>
      <text class="cls-2" transform="translate(16.22 24.88) rotate(-53.9) scale(.94 1)"><tspan x="0" y="0">o</tspan></text>
      <text class="cls-2" transform="translate(17.94 22.51) rotate(-48.2) scale(.94 1)"><tspan x="0" y="0">u</tspan></text>
      <text class="cls-2" transform="translate(19.97 20.25) rotate(-42.69) scale(.94 1)"><tspan x="0" y="0">c</tspan></text>
      <text class="cls-2" transform="translate(21.95 18.41) rotate(-37.22) scale(.94 1)"><tspan x="0" y="0">h</tspan></text>
      <text class="cls-2" transform="translate(24.38 16.59) rotate(-32.92) scale(.94 1)"><tspan x="0" y="0"> </tspan></text>
      <text class="cls-2" transform="translate(25.64 15.77) rotate(-29.77) scale(.94 1)"><tspan x="0" y="0">!</tspan></text>
      <text class="cls-2" transform="translate(27.16 14.9) rotate(-26.38) scale(.94 1)"><tspan x="0" y="0">!</tspan></text>
      <text class="cls-2" transform="translate(28.73 14.12) rotate(-23.28) scale(.94 1)"><tspan x="0" y="0"> </tspan></text>
      <text class="cls-2" transform="translate(30.1 13.53) rotate(-20.38) scale(.94 1)"><tspan x="0" y="0"> </tspan></text>
      <text class="cls-2" transform="translate(31.45 12.97) rotate(-15.23) scale(.94 1)"><tspan x="0" y="0">G</tspan></text>
      <text class="cls-2" transform="translate(35.13 11.99) rotate(-8.78) scale(.94 1)"><tspan x="0" y="0">e</tspan></text>
      <text class="cls-2" transform="translate(38.03 11.56) rotate(-4.22) scale(.94 1)"><tspan x="0" y="0">t</tspan></text>
      <text class="cls-2" transform="translate(39.85 11.43) rotate(-1.09) scale(.94 1)"><tspan x="0" y="0"> </tspan></text>
      <text class="cls-2" transform="translate(41.34 11.4) rotate(1.63) scale(.94 1)"><tspan x="0" y="0">i</tspan></text>
      <text class="cls-2" transform="translate(42.73 11.41) rotate(5.89) scale(.94 1)"><tspan x="0" y="0">n</tspan></text>
      <text class="cls-2" transform="translate(45.75 11.75) rotate(10.22) scale(.94 1)"><tspan x="0" y="0"> </tspan></text>
      <text class="cls-2" transform="translate(47.22 12) rotate(13.45) scale(.94 1)"><tspan x="0" y="0">t</tspan></text>
      <text class="cls-2" transform="translate(48.98 12.4) rotate(18.03) scale(.94 1)"><tspan x="0" y="0">o</tspan></text>
      <text class="cls-2" transform="translate(51.77 13.3) rotate(23.81) scale(.94 1)"><tspan x="0" y="0">u</tspan></text>
      <text class="cls-2" transform="translate(54.54 14.52) rotate(29.34) scale(.94 1)"><tspan x="0" y="0">c</tspan></text>
      <text class="cls-2" transform="translate(56.91 15.84) rotate(34.86) scale(.94 1)"><tspan x="0" y="0">h</tspan></text>
      <text class="cls-2" transform="translate(59.4 17.61) rotate(39.19) scale(.94 1)"><tspan x="0" y="0"> </tspan></text>
      <text class="cls-2" transform="translate(60.54 18.53) rotate(42.26) scale(.94 1)"><tspan x="0" y="0">!</tspan></text>
      <text class="cls-2" transform="translate(61.85 19.72) rotate(45.64) scale(.94 1)"><tspan x="0" y="0">!</tspan></text>
      <circle class="cls-1" cx="41.19" cy="41.19" r="41"/>
    </g>
  </g>
</svg>