<?xml version="1.0" encoding="UTF-8"?>
<svg id="_レイヤー_2" data-name="レイヤー 2" xmlns="http://www.w3.org/2000/svg" viewBox="0 0 106.5 106.5">
  <defs>
    <style>
      .cls-1 {
        fill: none;
        stroke: #fff;
        stroke-miterlimit: 10;
        stroke-width: .5px;
      }

      .cls-2 {
        fill: #fff;
        font-family: YuGothic-Medium, 'Yu Gothic';
        font-size: 7.42px;
        font-weight: 500;
      }
    </style>
  </defs>
  <g id="img">
    <g>
      <text class="cls-2" transform="translate(84.07 30.03) rotate(56.73) scale(.94 1)"><tspan x="0" y="0">G</tspan></text>
      <text class="cls-2" transform="translate(86.74 34.15) rotate(63.13) scale(.94 1)"><tspan x="0" y="0">e</tspan></text>
      <text class="cls-2" transform="translate(88.41 37.51) rotate(67.68) scale(.94 1)"><tspan x="0" y="0">t</tspan></text>
      <text class="cls-2" transform="translate(89.31 39.71) rotate(70.9) scale(.94 1)"><tspan x="0" y="0"> </tspan></text>
      <text class="cls-2" transform="translate(89.94 41.53) rotate(73.7) scale(.94 1)"><tspan x="0" y="0">i</tspan></text>
      <text class="cls-2" transform="translate(90.48 43.21) rotate(77.98) scale(.94 1)"><tspan x="0" y="0">n</tspan></text>
      <text class="cls-2" transform="translate(91.27 47.05) rotate(82.3) scale(.94 1)"><tspan x="0" y="0"> </tspan></text>
      <text class="cls-2" transform="translate(91.53 48.94) rotate(85.47) scale(.94 1)"><tspan x="0" y="0">t</tspan></text>
      <text class="cls-2" transform="translate(91.72 51.26) rotate(89.07) scale(.94 1)"><tspan x="0" y="0">o</tspan></text>
      <text class="cls-2" transform="translate(91.76 55.05) rotate(95.62) scale(.94 1)"><tspan x="0" y="0">u</tspan></text>
      <text class="cls-2" transform="translate(91.37 58.93) rotate(101.12) scale(.94 1)"><tspan x="0" y="0">c</tspan></text>
      <text class="cls-2" transform="translate(90.72 62.36) rotate(106.66) scale(.94 1)"><tspan x="0" y="0">h</tspan></text>
      <text class="cls-2" transform="translate(89.55 66.13) rotate(111.04) scale(.94 1)"><tspan x="0" y="0"> </tspan></text>
      <text class="cls-2" transform="translate(88.87 67.91) rotate(114.16) scale(.94 1)"><tspan x="0" y="0">!</tspan></text>
      <text class="cls-2" transform="translate(87.94 69.99) rotate(117.56) scale(.94 1)"><tspan x="0" y="0">!</tspan></text>
      <text class="cls-2" transform="translate(86.89 72.01) rotate(120.68) scale(.94 1)"><tspan x="0" y="0"> </tspan></text>
      <text class="cls-2" transform="translate(85.91 73.65) rotate(123.53) scale(.94 1)"><tspan x="0" y="0"> </tspan></text>
      <text class="cls-2" transform="translate(84.94 75.26) rotate(128.59) scale(.94 1)"><tspan x="0" y="0">G</tspan></text>
      <text class="cls-2" transform="translate(81.84 79.1) rotate(135) scale(.94 1)"><tspan x="0" y="0">e</tspan></text>
      <text class="cls-2" transform="translate(79.18 81.73) rotate(139.49) scale(.94 1)"><tspan x="0" y="0">t</tspan></text>
      <text class="cls-2" transform="translate(77.37 83.27) rotate(142.65) scale(.94 1)"><tspan x="0" y="0"> </tspan></text>
      <text class="cls-2" transform="translate(75.85 84.43) rotate(145.4) scale(.94 1)"><tspan x="0" y="0">i</tspan></text>
      <text class="cls-2" transform="translate(74.41 85.48) rotate(149.67) scale(.94 1)"><tspan x="0" y="0">n</tspan></text>
      <text class="cls-2" transform="translate(70.99 87.44) rotate(154.01) scale(.94 1)"><tspan x="0" y="0"> </tspan></text>
      <text class="cls-2" transform="translate(69.28 88.28) rotate(157.2) scale(.94 1)"><tspan x="0" y="0">t</tspan></text>
      <text class="cls-2" transform="translate(67.14 89.22) rotate(161.79) scale(.94 1)"><tspan x="0" y="0">o</tspan></text>
      <text class="cls-2" transform="translate(63.57 90.4) rotate(167.54) scale(.94 1)"><tspan x="0" y="0">u</tspan></text>
      <text class="cls-2" transform="translate(59.74 91.24) rotate(173.07) scale(.94 1)"><tspan x="0" y="0">c</tspan></text>
      <text class="cls-2" transform="translate(56.29 91.68) rotate(178.51) scale(.94 1)"><tspan x="0" y="0">h</tspan></text>
      <text class="cls-2" transform="translate(52.35 91.75) rotate(-177.24) scale(.94 1)"><tspan x="0" y="0"> </tspan></text>
      <text class="cls-2" transform="translate(50.42 91.66) rotate(-174.11) scale(.94 1)"><tspan x="0" y="0">!</tspan></text>
      <text class="cls-2" transform="translate(48.18 91.43) rotate(-170.77) scale(.94 1)"><tspan x="0" y="0">!</tspan></text>
      <text class="cls-2" transform="translate(45.93 91.06) rotate(-167.63) scale(.94 1)"><tspan x="0" y="0"> </tspan></text>
      <text class="cls-2" transform="translate(44.07 90.66) rotate(-164.77) scale(.94 1)"><tspan x="0" y="0"> </tspan></text>
      <text class="cls-2" transform="translate(42.23 90.23) rotate(-159.62) scale(.94 1)"><tspan x="0" y="0">G</tspan></text>
      <text class="cls-2" transform="translate(37.63 88.5) rotate(-153.18) scale(.94 1)"><tspan x="0" y="0">e</tspan></text>
      <text class="cls-2" transform="translate(34.28 86.78) rotate(-148.63) scale(.94 1)"><tspan x="0" y="0">t</tspan></text>
      <text class="cls-2" transform="translate(32.25 85.54) rotate(-145.44) scale(.94 1)"><tspan x="0" y="0"> </tspan></text>
      <text class="cls-2" transform="translate(30.67 84.45) rotate(-142.69) scale(.94 1)"><tspan x="0" y="0">i</tspan></text>
      <text class="cls-2" transform="translate(29.26 83.43) rotate(-138.5) scale(.94 1)"><tspan x="0" y="0">n</tspan></text>
      <text class="cls-2" transform="translate(26.33 80.79) rotate(-134.19) scale(.94 1)"><tspan x="0" y="0"> </tspan></text>
      <text class="cls-2" transform="translate(24.98 79.41) rotate(-130.98) scale(.94 1)"><tspan x="0" y="0">t</tspan></text>
      <text class="cls-2" transform="translate(23.42 77.66) rotate(-126.45) scale(.94 1)"><tspan x="0" y="0">o</tspan></text>
      <text class="cls-2" transform="translate(21.18 74.65) rotate(-120.76) scale(.94 1)"><tspan x="0" y="0">u</tspan></text>
      <text class="cls-2" transform="translate(19.18 71.28) rotate(-115.24) scale(.94 1)"><tspan x="0" y="0">c</tspan></text>
      <text class="cls-2" transform="translate(17.68 68.14) rotate(-109.71) scale(.94 1)"><tspan x="0" y="0">h</tspan></text>
      <text class="cls-2" transform="translate(16.38 64.4) rotate(-105.32) scale(.94 1)"><tspan x="0" y="0"> </tspan></text>
      <text class="cls-2" transform="translate(15.86 62.56) rotate(-102.19) scale(.94 1)"><tspan x="0" y="0">!</tspan></text>
      <text class="cls-2" transform="translate(15.39 60.36) rotate(-98.82) scale(.94 1)"><tspan x="0" y="0">!</tspan></text>
      <text class="cls-2" transform="translate(15.04 58.11) rotate(-95.71) scale(.94 1)"><tspan x="0" y="0"> </tspan></text>
      <text class="cls-2" transform="translate(14.85 56.22) rotate(-92.9) scale(.94 1)"><tspan x="0" y="0"> </tspan></text>
      <text class="cls-2" transform="translate(14.68 54.36) rotate(-87.91) scale(.94 1)"><tspan x="0" y="0">G</tspan></text>
      <text class="cls-2" transform="translate(14.89 49.42) rotate(-81.49) scale(.94 1)"><tspan x="0" y="0">e</tspan></text>
      <text class="cls-2" transform="translate(15.46 45.71) rotate(-76.96) scale(.94 1)"><tspan x="0" y="0">t</tspan></text>
      <text class="cls-2" transform="translate(16 43.4) rotate(-73.75) scale(.94 1)"><tspan x="0" y="0"> </tspan></text>
      <text class="cls-2" transform="translate(16.55 41.55) rotate(-70.95) scale(.94 1)"><tspan x="0" y="0">i</tspan></text>
      <text class="cls-2" transform="translate(17.08 39.87) rotate(-66.68) scale(.94 1)"><tspan x="0" y="0">n</tspan></text>
      <text class="cls-2" transform="translate(18.66 36.29) rotate(-62.36) scale(.94 1)"><tspan x="0" y="0"> </tspan></text>
      <text class="cls-2" transform="translate(19.54 34.58) rotate(-59.15) scale(.94 1)"><tspan x="0" y="0">t</tspan></text>
      <text class="cls-2" transform="translate(20.72 32.55) rotate(-54.58) scale(.94 1)"><tspan x="0" y="0">o</tspan></text>
      <text class="cls-2" transform="translate(22.88 29.49) rotate(-48.93) scale(.94 1)"><tspan x="0" y="0">u</tspan></text>
      <text class="cls-2" transform="translate(25.48 26.52) rotate(-43.42) scale(.94 1)"><tspan x="0" y="0">c</tspan></text>
      <text class="cls-2" transform="translate(28 24.11) rotate(-37.95) scale(.94 1)"><tspan x="0" y="0">h</tspan></text>
      <text class="cls-2" transform="translate(31.13 21.71) rotate(-33.61) scale(.94 1)"><tspan x="0" y="0"> </tspan></text>
      <text class="cls-2" transform="translate(32.72 20.65) rotate(-30.51) scale(.94 1)"><tspan x="0" y="0">!</tspan></text>
      <text class="cls-2" transform="translate(34.65 19.51) rotate(-27.16) scale(.94 1)"><tspan x="0" y="0">!</tspan></text>
      <text class="cls-2" transform="translate(36.68 18.47) rotate(-24.02) scale(.94 1)"><tspan x="0" y="0"> </tspan></text>
      <text class="cls-2" transform="translate(38.42 17.69) rotate(-21.17) scale(.94 1)"><tspan x="0" y="0"> </tspan></text>
      <text class="cls-2" transform="translate(40.15 16.94) rotate(-16.03) scale(.94 1)"><tspan x="0" y="0">G</tspan></text>
      <text class="cls-2" transform="translate(44.88 15.61) rotate(-9.59) scale(.94 1)"><tspan x="0" y="0">e</tspan></text>
      <text class="cls-2" transform="translate(48.61 15) rotate(-5.03) scale(.94 1)"><tspan x="0" y="0">t</tspan></text>
      <text class="cls-2" transform="translate(50.98 14.8) rotate(-1.86) scale(.94 1)"><tspan x="0" y="0"> </tspan></text>
      <text class="cls-2" transform="translate(52.88 14.74) rotate(.93) scale(.94 1)"><tspan x="0" y="0">i</tspan></text>
      <text class="cls-2" transform="translate(54.65 14.72) rotate(5.03) scale(.94 1)"><tspan x="0" y="0">n</tspan></text>
      <text class="cls-2" transform="translate(58.58 15.1) rotate(9.36) scale(.94 1)"><tspan x="0" y="0"> </tspan></text>
      <text class="cls-2" transform="translate(60.45 15.4) rotate(12.55) scale(.94 1)"><tspan x="0" y="0">t</tspan></text>
      <text class="cls-2" transform="translate(62.75 15.88) rotate(17.14) scale(.94 1)"><tspan x="0" y="0">o</tspan></text>
      <text class="cls-2" transform="translate(66.34 16.97) rotate(22.88) scale(.94 1)"><tspan x="0" y="0">u</tspan></text>
      <text class="cls-2" transform="translate(69.95 18.5) rotate(28.42) scale(.94 1)"><tspan x="0" y="0">c</tspan></text>
      <text class="cls-2" transform="translate(73.05 20.16) rotate(33.96) scale(.94 1)"><tspan x="0" y="0">h</tspan></text>
      <text class="cls-2" transform="translate(76.28 22.38) rotate(38.24) scale(.94 1)"><tspan x="0" y="0"> </tspan></text>
      <text class="cls-2" transform="translate(77.78 23.55) rotate(41.33) scale(.94 1)"><tspan x="0" y="0">!</tspan></text>
      <text class="cls-2" transform="translate(79.49 25.06) rotate(44.7) scale(.94 1)"><tspan x="0" y="0">!</tspan></text>
      <circle class="cls-1" cx="53.25" cy="53.25" r="53"/>
    </g>
  </g>
</svg>